<svg xmlns="http://www.w3.org/2000/svg" viewBox="0 0 640 185" width="640" height="185">
	<defs>
		<linearGradient id="grd1" gradientUnits="userSpaceOnUse"  x1="77.463" y1="2.203" x2="-93.686" y2="227.26">
			<stop offset="0.146" stop-color="#8d00ff"  />
			<stop offset="0.153" stop-color="#8c01ff"  />
			<stop offset="0.465" stop-color="#5b22eb"  />
			<stop offset="0.704" stop-color="#3d37df"  />
			<stop offset="0.838" stop-color="#323fda"  />
		</linearGradient>
		<linearGradient id="grd2" gradientUnits="userSpaceOnUse"  x1="205.647" y1="86.685" x2="34.84" y2="248.744">
			<stop offset="0.273" stop-color="#8d00ff"  />
			<stop offset="0.279" stop-color="#8c01ff"  />
			<stop offset="0.534" stop-color="#5b22eb"  />
			<stop offset="0.729" stop-color="#3d37df"  />
			<stop offset="0.838" stop-color="#323fda"  />
		</linearGradient>
		<linearGradient id="grd3" gradientUnits="userSpaceOnUse"  x1="205.647" y1="86.685" x2="34.84" y2="248.744">
			<stop offset="0.273" stop-color="#8d00ff"  />
			<stop offset="0.279" stop-color="#8c01ff"  />
			<stop offset="0.534" stop-color="#5b22eb"  />
			<stop offset="0.729" stop-color="#3d37df"  />
			<stop offset="0.838" stop-color="#323fda"  />
		</linearGradient>
		<linearGradient id="grd4" gradientUnits="userSpaceOnUse"  x1="77.463" y1="2.203" x2="-93.686" y2="227.26">
			<stop offset="0.146" stop-color="#8d00ff"  />
			<stop offset="0.153" stop-color="#8c01ff"  />
			<stop offset="0.465" stop-color="#211260"  />
			<stop offset="0.704" stop-color="#211260"  />
			<stop offset="0.838" stop-color="#211260"  />
		</linearGradient>
	</defs>
	<style>
		tspan { white-space:pre }
		.shp0 { fill: #050638 } 
		.shp1 { fill: url(#grd1) } 
		.shp2 { fill: url(#grd2) } 
		.shp3 { fill: url(#grd3) } 
		.shp4 { fill: #323fda } 
		.shp5 { fill: url(#grd4) } 
	</style>
	<g id="Layer">
		<g id="Layer">
			<path id="Layer" class="shp0" d="M302.7 35.7C305.7 34.5 309 33.9 312.9 33.9L312.9 50.2C311.2 50 309.9 49.9 308.8 49.9C304.9 49.9 301.9 50.9 299.7 53C297.5 55.1 296.4 58.3 296.4 62.6L296.4 86.4L278.3 86.4L278.3 34.7L295.6 34.7L295.6 40.9C297.4 38.6 299.8 36.8 302.7 35.7Z" />
			<path id="Layer" fill-rule="evenodd" class="shp0" d="M374.4 65.2L336.8 65.2C337.6 67.9 339 69.9 341.2 71.4C343.4 72.9 346.1 73.5 349.5 73.5C352 73.5 354.1 73.2 355.9 72.5C357.7 71.8 359.5 70.7 361.4 69.1L370.9 79C365.9 84.6 358.5 87.4 348.9 87.4C342.9 87.4 337.5 86.3 333 84C328.5 81.7 324.9 78.5 322.4 74.5C319.9 70.4 318.6 65.8 318.6 60.7C318.6 55.6 319.8 51 322.3 47C324.7 43 328.1 39.8 332.5 37.5C336.8 35.2 341.7 34.1 347.1 34.1C352.3 34.1 356.9 35.2 361.1 37.3C365.3 39.4 368.6 42.5 371.1 46.6C373.5 50.6 374.8 55.4 374.8 61C374.7 60.9 374.6 62.3 374.4 65.2ZM340.1 49.2C338.2 50.8 337 53 336.5 55.7L357.7 55.7C357.2 53 356 50.8 354.1 49.2C352.2 47.6 349.9 46.8 347.1 46.8C344.3 46.8 341.9 47.6 340.1 49.2Z" />
			<path id="Layer" fill-rule="evenodd" class="shp0" d="M425.2 39.8C429.7 43.7 432 49.7 432 57.8L432 86.5L415.1 86.5L415.1 79.8C412.5 84.8 407.4 87.3 399.8 87.3C395.8 87.3 392.3 86.6 389.4 85.2C386.5 83.8 384.3 81.9 382.8 79.5C381.3 77.1 380.6 74.4 380.6 71.3C380.6 66.4 382.5 62.6 386.2 59.9C390 57.2 395.7 55.8 403.6 55.8L413.9 55.8C413.6 50.3 409.9 47.6 402.9 47.6C400.4 47.6 397.9 48 395.4 48.8C392.9 49.6 390.7 50.7 388.9 52.1L382.8 39.8C385.7 37.9 389.1 36.4 393.3 35.4C397.4 34.4 401.5 33.8 405.7 33.8C414.2 33.9 420.7 35.9 425.2 39.8ZM410.5 74.4C412.1 73.4 413.2 71.9 413.9 69.9L413.9 65.4L406.1 65.4C400.8 65.4 398.2 67.2 398.2 70.6C398.2 72.2 398.8 73.5 400 74.4C401.2 75.4 402.9 75.8 405 75.8C407 75.9 408.9 75.4 410.5 74.4Z" />
			<path id="Layer" class="shp0" d="M491 26.3C489 24.5 487.9 22.2 487.9 19.4C487.9 16.7 488.9 14.4 491 12.5C493 10.7 495.7 9.7 499 9.7C502.3 9.7 505 10.6 507 12.3C509 14.1 510.1 16.3 510.1 19C510.1 21.9 509.1 24.2 507 26.1C505 28 502.3 28.9 499 28.9C495.7 29 493 28.1 491 26.3ZM490 34.8L508.1 34.8L508.1 86.5L490 86.5L490 34.8Z" />
			<path id="Layer" class="shp0" d="M576.2 34.8L554.9 86.5L536.2 86.5L514.9 34.8L533.5 34.8L545.9 66.4L559 34.8L576.2 34.8L576.2 34.8Z" />
			<path id="Layer" fill-rule="evenodd" class="shp0" d="M634 65.2L596.4 65.2C597.2 67.9 598.6 69.9 600.8 71.4C603 72.9 605.7 73.5 609.1 73.5C611.6 73.5 613.7 73.2 615.5 72.5C617.3 71.8 619.1 70.7 621 69.1L630.5 79C625.5 84.6 618.1 87.4 608.5 87.4C602.5 87.4 597.1 86.3 592.6 84C588 81.7 584.5 78.5 582 74.5C579.5 70.4 578.2 65.8 578.2 60.7C578.2 55.6 579.4 51 581.9 47C584.3 43 587.7 39.8 592.1 37.5C596.4 35.2 601.3 34.1 606.7 34.1C611.9 34.1 616.5 35.2 620.7 37.3C624.9 39.4 628.2 42.5 630.7 46.6C633.1 50.6 634.4 55.4 634.4 61C634.3 60.9 634.2 62.3 634 65.2ZM599.7 49.2C597.8 50.8 596.6 53 596.1 55.7L617.3 55.7C616.8 53 615.6 50.8 613.7 49.2C611.8 47.6 609.5 46.8 606.7 46.8C603.9 46.8 601.6 47.6 599.7 49.2Z" />
			<path id="Layer" fill-rule="evenodd" class="shp0" d="M287.6 172.6C283.1 170.3 279.7 167.1 277.1 163.1C274.6 159 273.3 154.4 273.3 149.3C273.3 144.2 274.6 139.6 277.1 135.6C279.6 131.5 283.1 128.4 287.5 126.1C291.9 123.8 296.9 122.7 302.5 122.7C308.1 122.7 313.1 123.8 317.6 126.1C322.1 128.4 325.5 131.5 328 135.5C330.5 139.5 331.7 144.1 331.7 149.3C331.7 154.5 330.5 159.1 328 163.1C325.5 167.2 322 170.4 317.6 172.6C313.1 174.9 308.1 176 302.5 176C297.1 176 292.1 174.8 287.6 172.6ZM310.4 158.3C312.4 156.1 313.5 153.1 313.5 149.2C313.5 145.4 312.5 142.4 310.4 140.2C308.4 138 305.8 137 302.6 137C299.4 137 296.8 138.1 294.8 140.2C292.8 142.4 291.7 145.4 291.7 149.2C291.7 153.1 292.7 156.1 294.8 158.3C296.8 160.5 299.4 161.6 302.6 161.6C305.8 161.6 308.4 160.5 310.4 158.3Z" />
			<path id="Layer" fill-rule="evenodd" class="shp0" d="M397.1 175.1L379.8 175.1L379.8 169.9C376.4 173.9 371.4 175.9 364.6 175.9C359.9 175.9 355.6 174.8 351.7 172.6C347.8 170.4 344.7 167.3 342.5 163.2C340.2 159.1 339.1 154.4 339.1 149.1C339.1 143.8 340.2 139.1 342.5 135C344.8 131 347.8 127.9 351.7 125.7C355.6 123.5 359.9 122.5 364.6 122.5C370.8 122.5 375.5 124.3 378.9 127.8L378.9 104.2L397.1 104.2L397.1 175.1ZM376.2 158.3C378.2 156.1 379.3 153.1 379.3 149.2C379.3 145.4 378.3 142.4 376.3 140.2C374.3 138 371.7 137 368.5 137C365.3 137 362.7 138.1 360.7 140.2C358.7 142.4 357.6 145.4 357.6 149.2C357.6 153.1 358.6 156.1 360.7 158.3C362.7 160.5 365.3 161.6 368.5 161.6C371.6 161.6 374.2 160.5 376.2 158.3Z" />
			<path id="Layer" fill-rule="evenodd" class="shp0" d="M463.2 153.8L425.6 153.8C426.4 156.5 427.8 158.5 430 160C432.2 161.4 434.9 162.1 438.3 162.1C440.8 162.1 442.9 161.8 444.7 161.1C446.5 160.4 448.3 159.3 450.2 157.7L459.7 167.6C454.7 173.2 447.3 176 437.7 176C431.7 176 426.3 174.9 421.8 172.6C417.2 170.3 413.7 167.1 411.2 163.1C408.7 159 407.4 154.4 407.4 149.3C407.4 144.2 408.6 139.6 411.1 135.6C413.5 131.6 416.9 128.4 421.3 126.1C425.6 123.8 430.5 122.7 435.9 122.7C441.1 122.7 445.7 123.8 449.9 125.9C454.1 128 457.4 131.1 459.9 135.2C462.3 139.2 463.6 144 463.6 149.6C463.5 149.5 463.4 151 463.2 153.8ZM428.9 137.8C427 139.4 425.8 141.6 425.3 144.3L446.5 144.3C446 141.6 444.8 139.4 442.9 137.8C441 136.2 438.7 135.4 435.9 135.4C433.1 135.4 430.8 136.2 428.9 137.8Z" />
			<path id="Layer" class="shp0" d="M264.1 64.4C259.8 69.6 254.5 72.2 248.3 72.2C244.7 72.2 241.4 71.4 238.6 69.8C235.8 68.2 233.6 66 232 63.1C230.4 60.2 229.7 56.9 229.7 53.1C229.7 49.3 230.5 46 232 43.1C233.6 40.2 235.8 38 238.6 36.4C241.4 34.8 244.7 34 248.3 34C254.5 34 259.7 36.6 264.1 41.8L264.1 21.7C264 21.7 264 21.6 263.9 21.6C259 19.4 253.5 18.4 247.4 18.4C240.4 18.4 234.1 19.9 228.5 22.8C222.9 25.8 218.6 29.9 215.4 35.2C212.2 40.5 210.6 46.5 210.6 53.1C210.6 59.8 212.2 65.8 215.4 71C218.6 76.3 223 80.4 228.5 83.4C234.1 86.4 240.3 87.8 247.4 87.8C253.5 87.8 259 86.7 263.9 84.6C264 84.6 264 84.5 264.1 84.5L264.1 64.4Z" />
			<path id="Layer" class="shp0" d="M264.1 153C259.8 158.2 254.5 160.8 248.3 160.8C244.7 160.8 241.4 160 238.6 158.4C235.8 156.8 233.6 154.6 232 151.7C230.4 148.8 229.7 145.5 229.7 141.7C229.7 137.9 230.5 134.6 232 131.7C233.6 128.8 235.8 126.6 238.6 125C241.4 123.4 244.7 122.6 248.3 122.6C254.5 122.6 259.7 125.2 264.1 130.4L264.1 110.3C264 110.3 264 110.2 263.9 110.2C259 108 253.5 107 247.4 107C240.4 107 234.1 108.5 228.5 111.4C222.9 114.4 218.6 118.5 215.4 123.8C212.2 129.1 210.6 135.1 210.6 141.7C210.6 148.4 212.2 154.4 215.4 159.6C218.6 164.9 223 169 228.5 172C234.1 175 240.3 176.4 247.4 176.4C253.5 176.4 259 175.3 263.9 173.2C264 173.2 264 173.1 264.1 173.1L264.1 153Z" />
			<path id="Layer" class="shp0" d="M476.6 71.8L476.6 71.8C475 72.8 473.1 73.3 471 73.3C469.3 73.3 468 72.8 467 71.7C466 70.7 465.5 69.2 465.5 67.4L465.5 50.2L476.5 50.2L476.5 36.7L465.5 36.7L465.5 23.2L447.4 23.2L447.4 36.7L439.9 36.7L439.9 50.3L447.4 50.3L447.4 67.7C447.4 74.3 449.2 79.2 452.8 82.5C456.4 85.8 461.6 87.5 468.4 87.5C470.9 87.5 473.2 87.2 475.4 86.7C475.8 86.6 476.2 86.5 476.5 86.4L476.5 71.8L476.6 71.8L476.6 71.8Z" />
		</g>
		<path id="Layer" class="shp1" d="M36.3 36.5L109.5 36.5L137.8 8.2L8 8.2L8 158L36.3 129.7L36.3 36.5Z" />
		<path id="Layer" class="shp2" d="M149.5 149.7L76.3 149.7L48 178L177.8 178L177.8 48.2L149.5 76.5L149.5 149.7Z" />
		<path id="Layer" class="shp3" d="M149.5 149.7L76.3 149.7L48 178L177.8 178L177.8 48.2L149.5 76.5L149.5 149.7Z" />
		<g id="Layer">
			<path id="Layer" class="shp4" d="M157.8 8.2L83.7 82.3L83.7 82.3L54.2 111.8L54.2 111.8L8 158L8 178L27.1 178L28 178L28 178L56.3 149.7L56.3 149.7L128.7 77.3L128.7 77.3L177.8 28.2L177.8 8.2L157.8 8.2Z" />
		</g>
		<path id="Layer" class="shp5" d="M36.3 36.5L109.5 36.5L137.8 8.2L8 8.2L8 158L36.3 129.7L36.3 36.5Z" />
	</g>
</svg>