<svg xmlns="http://www.w3.org/2000/svg" viewBox="0 0 35 35"><defs><style>.cls-1{fill:#fff;}</style></defs><title>icon</title><g id="Objects"><g id="_8gQDuR.tif" data-name="8gQDuR.tif"><path class="cls-1" d="M28.92,26.05c0,2.36,0,4.73,0,7.09,0,.89-.24,1.14-1.14,1.14H21.54c-1,0-1.29-.26-1.29-1.28q0-4.23,0-8.46c0-.94,0-.94-.91-.94H15.61c-.87,0-.87,0-.87.9v8.41c0,1.12-.26,1.37-1.38,1.37h-6c-1.1,0-1.32-.22-1.32-1.34V19c0-.79,0-.79-.79-.8H1.89c-.42,0-.87.09-1.09-.41s.09-.82.41-1.14L11.87,6l4.8-4.8c.67-.66,1-.66,1.66,0q7.76,7.74,15.5,15.49c.29.28.58.57.39,1s-.62.49-1,.49c-1.2,0-2.4,0-3.6,0-.49,0-.66.14-.65.64C28.94,21.25,28.92,23.65,28.92,26.05Zm2.56-9.36a1,1,0,0,0-.39-.53Q24.55,9.62,18,3.08c-.41-.41-.62-.42-1,0Q10.45,9.64,3.87,16.18c-.13.13-.32.23-.38.51H6.43c.88,0,1.15.26,1.2,1.13,0,.22,0,.44,0,.66V31.74c0,.95,0,.95,1,.95h3.72c.81,0,.81,0,.81-.8,0-2.86,0-5.72,0-8.58,0-1,.28-1.3,1.28-1.3q3.09,0,6.18,0c1,0,1.23.27,1.23,1.26,0,2.9,0,5.8,0,8.7,0,.54.15.74.71.73,1.36,0,2.72,0,4.09,0,.78,0,.78,0,.78-.81v-14c0-.89.25-1.13,1.14-1.14Z"/></g></g></svg>