<svg xmlns="http://www.w3.org/2000/svg" viewBox="0 0 35 35"><defs><style>.cls-1{fill:#fff;}</style></defs><title>icon</title><g id="Objects"><g id="AWcCxv.tif"><path class="cls-1" d="M4.15,27.07a1.09,1.09,0,0,1,.25-.65c.5-.75,1-1.5,1.51-2.24a.64.64,0,0,0,0-.84,4.74,4.74,0,0,1-.74-1.78A.62.62,0,0,0,4.62,21c-.9-.16-1.79-.37-2.69-.55a.88.88,0,0,1-.83-1c0-1.29,0-2.58,0-3.87,0-.71.14-.89.85-1s1.68-.35,2.53-.5a.75.75,0,0,0,.73-.68A4.52,4.52,0,0,1,6,11.65a.59.59,0,0,0,0-.74c-.51-.74-1-1.5-1.48-2.25S4,7.74,4.6,7.17L7.17,4.6C7.72,4.06,8,4,8.61,4.45s1.5,1,2.24,1.51a.61.61,0,0,0,.79,0,4.56,4.56,0,0,1,1.77-.75A.68.68,0,0,0,14,4.56c.16-.88.37-1.75.52-2.64a.9.9,0,0,1,1-.85c1.33,0,2.65,0,4,0a.9.9,0,0,1,1,.85c.15.85.34,1.69.48,2.53.08.43.25.71.72.78a3.91,3.91,0,0,1,1.67.69.67.67,0,0,0,.89,0c.72-.51,1.46-1,2.2-1.46s.87-.36,1.39.15c.89.88,1.76,1.78,2.66,2.65a.9.9,0,0,1,.13,1.34c-.52.73-1,1.5-1.5,2.24a.65.65,0,0,0,0,.85,4.79,4.79,0,0,1,.73,1.78c.07.39.28.51.62.58q1.29.24,2.58.51c.74.15.92.37.93,1.11v3.7c0,.73-.18.94-.88,1.09-.88.19-1.76.38-2.64.54a.66.66,0,0,0-.6.6A4.36,4.36,0,0,1,29,23.36a.63.63,0,0,0,0,.84c.53.77,1,1.57,1.55,2.35a.81.81,0,0,1-.1,1.15l-2.86,2.86a.84.84,0,0,1-1.21.07c-.75-.52-1.53-1-2.29-1.53a.61.61,0,0,0-.83,0,4,4,0,0,1-1.72.73.75.75,0,0,0-.66.69c-.16.86-.34,1.72-.51,2.58-.15.69-.35.86-1,.87H15.53a.84.84,0,0,1-.95-.75c-.18-.9-.39-1.8-.56-2.7a.72.72,0,0,0-.65-.69,4.3,4.3,0,0,1-1.67-.69.73.73,0,0,0-.95,0c-.74.51-1.51,1-2.25,1.49a.86.86,0,0,1-1.25-.12L4.48,27.72A.81.81,0,0,1,4.15,27.07ZM29,8.15a.44.44,0,0,0-.2-.38c-.52-.53-1.06-1-1.57-1.58-.23-.25-.42-.19-.66,0-.76.51-1.54,1-2.3,1.51a.87.87,0,0,1-1.13,0A5.25,5.25,0,0,0,20.5,6.58a.92.92,0,0,1-.88-.86c-.16-.88-.37-1.76-.53-2.64a.48.48,0,0,0-.55-.46c-.67,0-1.33,0-2,0-.46,0-.61.19-.69.59-.15.82-.34,1.64-.49,2.47a1,1,0,0,1-.92.91,4.9,4.9,0,0,0-2.56,1.06,1,1,0,0,1-1.24,0c-.74-.52-1.5-1-2.24-1.5a.45.45,0,0,0-.7.06Q7,7,6.2,7.72a.48.48,0,0,0-.07.75c.52.75,1,1.53,1.52,2.29a.85.85,0,0,1,0,1.08,5.48,5.48,0,0,0-1.1,2.68.94.94,0,0,1-.87.88c-.83.15-1.65.35-2.48.47-.47.07-.63.28-.6.74s0,1.21,0,1.81c0,.43.12.64.56.72.83.14,1.64.35,2.47.5a1,1,0,0,1,.93,1,5.05,5.05,0,0,0,1,2.51.93.93,0,0,1,0,1.23c-.51.74-1,1.5-1.5,2.24a.47.47,0,0,0,.09.71c.49.47,1,.94,1.44,1.45.3.32.53.29.86.06.72-.5,1.47-1,2.2-1.45a.87.87,0,0,1,1.13,0,5.26,5.26,0,0,0,2.62,1.09,1,1,0,0,1,.91.9c.16.81.34,1.61.48,2.41.08.45.28.65.74.62a17.22,17.22,0,0,1,1.76,0c.48,0,.71-.13.79-.62.12-.79.32-1.57.45-2.36a1,1,0,0,1,1-1,4.79,4.79,0,0,0,2.47-1,1,1,0,0,1,1.32,0c.72.51,1.47,1,2.19,1.47a.46.46,0,0,0,.71-.07c.47-.49.94-1,1.45-1.44.32-.29.29-.52.07-.85-.51-.72-1-1.47-1.46-2.2a.89.89,0,0,1,0-1.18,5.1,5.1,0,0,0,1.09-2.61.9.9,0,0,1,.82-.85c.88-.18,1.76-.39,2.64-.55a.49.49,0,0,0,.46-.56c0-.68,0-1.36,0-2a.55.55,0,0,0-.52-.63c-.81-.14-1.61-.33-2.42-.47a1,1,0,0,1-1-.95,5.12,5.12,0,0,0-1.1-2.61.88.88,0,0,1,0-1.13c.5-.73,1-1.47,1.46-2.2C28.85,8.39,28.92,8.25,29,8.15Z"/><path class="cls-1" d="M9.79,17.53a7.61,7.61,0,0,1,7.63-7.71,7.72,7.72,0,0,1,7.79,7.65,7.85,7.85,0,0,1-7.71,7.78A7.74,7.74,0,0,1,9.79,17.53Zm13.85-.05a6.18,6.18,0,1,0-6.15,6.19A6.09,6.09,0,0,0,23.64,17.48Z"/></g></g></svg>