<svg xmlns="http://www.w3.org/2000/svg" viewBox="0 0 130 35"><defs><style>.cls-1,.cls-2{fill:#fff;}.cls-2{fill-rule:evenodd;}</style></defs><title>logo</title><g id="Objects"><g id="Layer"><g id="Layer-2" data-name="Layer"><path id="Layer-3" data-name="Layer" class="cls-1" d="M61.27,5.91a5.44,5.44,0,0,1,2-.36V8.84a7.15,7.15,0,0,0-.82-.06,2.51,2.51,0,0,0-1.84.63A2.57,2.57,0,0,0,60,11.34v4.81H56.34V5.71h3.49V7A3.41,3.41,0,0,1,61.27,5.91Z"/><path id="Layer-4" data-name="Layer" class="cls-2" d="M75.74,11.87H68.15A2.16,2.16,0,0,0,69,13.12a2.88,2.88,0,0,0,1.67.42,3.53,3.53,0,0,0,1.29-.2,3.82,3.82,0,0,0,1.11-.68l1.92,2a5.66,5.66,0,0,1-4.44,1.7,7,7,0,0,1-3.21-.69,5.37,5.37,0,0,1-2.14-1.91A5.31,5.31,0,0,1,64.48,11a5.12,5.12,0,0,1,2.8-4.68,6.55,6.55,0,0,1,5.77,0,4.85,4.85,0,0,1,2,1.87A5.52,5.52,0,0,1,75.82,11,4.67,4.67,0,0,0,75.74,11.87ZM68.81,8.64A2.18,2.18,0,0,0,68.09,10h4.28a2.2,2.2,0,0,0-.73-1.31,2.29,2.29,0,0,0-2.83,0Z"/><path id="Layer-5" data-name="Layer" class="cls-2" d="M86,6.74a4.55,4.55,0,0,1,1.37,3.63v5.8H84V14.82a3.15,3.15,0,0,1-3.09,1.51,4.81,4.81,0,0,1-2.09-.42,3.19,3.19,0,0,1-1.34-1.16A3,3,0,0,1,77,13.1a2.67,2.67,0,0,1,1.13-2.3A6,6,0,0,1,81.63,10h2.08c-.06-1.11-.81-1.65-2.22-1.65A5,5,0,0,0,80,8.56a4.3,4.3,0,0,0-1.32.66L77.43,6.74a7,7,0,0,1,2.12-.89,10.66,10.66,0,0,1,2.51-.32A5.93,5.93,0,0,1,86,6.74Zm-3,7a1.68,1.68,0,0,0,.69-.91v-.91H82.14c-1.07,0-1.6.36-1.6,1.05a.92.92,0,0,0,.37.77,1.53,1.53,0,0,0,1,.28A1.9,1.9,0,0,0,83,13.73Z"/><path id="Layer-6" data-name="Layer" class="cls-1" d="M99.27,4a1.83,1.83,0,0,1-.62-1.4,1.8,1.8,0,0,1,.62-1.39,2.38,2.38,0,0,1,1.62-.56,2.43,2.43,0,0,1,1.61.52,1.74,1.74,0,0,1,.63,1.35A1.83,1.83,0,0,1,102.5,4a2.69,2.69,0,0,1-3.23,0Zm-.2,1.71h3.65V16.17H99.07Z"/><path id="Layer-7" data-name="Layer" class="cls-1" d="M116.47,5.73l-4.3,10.44H108.4L104.1,5.73h3.75l2.5,6.38L113,5.73Z"/><path id="Layer-8" data-name="Layer" class="cls-2" d="M128.14,11.87h-7.59a2.16,2.16,0,0,0,.89,1.25,2.86,2.86,0,0,0,1.67.42,3.53,3.53,0,0,0,1.29-.2,3.82,3.82,0,0,0,1.11-.68l1.92,2a5.66,5.66,0,0,1-4.44,1.7,7,7,0,0,1-3.21-.69,5.24,5.24,0,0,1-2.14-1.91,5.32,5.32,0,0,1-.77-2.79,5.15,5.15,0,0,1,2.81-4.68,6.55,6.55,0,0,1,5.77,0,4.85,4.85,0,0,1,2,1.87,5.52,5.52,0,0,1,.75,2.91A4.67,4.67,0,0,0,128.14,11.87Zm-6.93-3.23a2.18,2.18,0,0,0-.72,1.31h4.28A2.2,2.2,0,0,0,124,8.64a2.12,2.12,0,0,0-1.41-.49A2.15,2.15,0,0,0,121.21,8.64Z"/><path id="Layer-9" data-name="Layer" class="cls-2" d="M58.22,33.55a5.4,5.4,0,0,1-2.12-1.92,5.23,5.23,0,0,1-.77-2.79,5.07,5.07,0,0,1,.77-2.76,5.2,5.2,0,0,1,2.1-1.92,6.5,6.5,0,0,1,3-.69,6.57,6.57,0,0,1,3,.69,5.17,5.17,0,0,1,2.1,1.9,5.27,5.27,0,0,1-2.1,7.49,6.57,6.57,0,0,1-3,.68A6.86,6.86,0,0,1,58.22,33.55Zm4.6-2.89a2.64,2.64,0,0,0,.63-1.84A2.52,2.52,0,0,0,62.82,27a2,2,0,0,0-1.57-.65,2.08,2.08,0,0,0-1.58.65,2.61,2.61,0,0,0-.62,1.81,2.55,2.55,0,0,0,.62,1.84,2.06,2.06,0,0,0,1.58.67A2,2,0,0,0,62.82,30.66Z"/><path id="Layer-10" data-name="Layer" class="cls-2" d="M80.32,34.05H76.83V33a3.79,3.79,0,0,1-3.07,1.21,5.21,5.21,0,0,1-2.6-.66,4.66,4.66,0,0,1-1.86-1.9,5.78,5.78,0,0,1-.69-2.85A5.72,5.72,0,0,1,69.3,26a4.8,4.8,0,0,1,1.86-1.88,5.2,5.2,0,0,1,2.6-.65,3.86,3.86,0,0,1,2.89,1.07V19.74h3.67ZM76.1,30.66a2.6,2.6,0,0,0,.63-1.84A2.56,2.56,0,0,0,76.12,27a2,2,0,0,0-1.57-.65A2.08,2.08,0,0,0,73,27a2.61,2.61,0,0,0-.62,1.81A2.55,2.55,0,0,0,73,30.66a2.06,2.06,0,0,0,1.58.67A2,2,0,0,0,76.1,30.66Z"/><path id="Layer-11" data-name="Layer" class="cls-2" d="M93.66,29.75H86.07A2.17,2.17,0,0,0,87,31a3,3,0,0,0,1.68.43,3.61,3.61,0,0,0,1.29-.2A4.43,4.43,0,0,0,91,30.54l1.92,2a5.68,5.68,0,0,1-4.45,1.69,7,7,0,0,1-3.2-.68,5.13,5.13,0,0,1-2.91-4.71,5.06,5.06,0,0,1,.75-2.76,5.14,5.14,0,0,1,2-1.92,6.57,6.57,0,0,1,5.78,0A4.87,4.87,0,0,1,93,26a5.58,5.58,0,0,1,.74,2.9A5.24,5.24,0,0,0,93.66,29.75Zm-6.92-3.23A2.23,2.23,0,0,0,86,27.83h4.28a2.17,2.17,0,0,0-.73-1.31,2.31,2.31,0,0,0-2.82,0Z"/><path id="Layer-12" data-name="Layer" class="cls-1" d="M53.47,11.71a4,4,0,0,1-3.18,1.57,3.93,3.93,0,0,1-2-.48A3.41,3.41,0,0,1,47,11.44a4,4,0,0,1-.47-2,4.21,4.21,0,0,1,.47-2,3.33,3.33,0,0,1,1.33-1.35,3.83,3.83,0,0,1,2-.49,4,4,0,0,1,3.18,1.58V3.09s0,0,0,0a7.89,7.89,0,0,0-3.33-.65,8.23,8.23,0,0,0-3.81.89,6.79,6.79,0,0,0-2.65,2.5,6.92,6.92,0,0,0-1,3.62,6.74,6.74,0,0,0,3.61,6.11,7.82,7.82,0,0,0,3.81.89,8.21,8.21,0,0,0,3.33-.65s0,0,0,0Z"/><path id="Layer-13" data-name="Layer" class="cls-1" d="M53.47,29.59a4,4,0,0,1-3.18,1.57,3.93,3.93,0,0,1-2-.48A3.39,3.39,0,0,1,47,29.33a4,4,0,0,1-.47-2,4.24,4.24,0,0,1,.47-2,3.39,3.39,0,0,1,1.33-1.35,3.93,3.93,0,0,1,2-.49A4,4,0,0,1,53.47,25V21s0,0,0,0a8,8,0,0,0-3.33-.64,8.23,8.23,0,0,0-3.81.88,6.81,6.81,0,0,0-2.65,2.51,6.91,6.91,0,0,0-1,3.61,6.81,6.81,0,0,0,1,3.61,7,7,0,0,0,2.65,2.51,7.93,7.93,0,0,0,3.81.88,8.38,8.38,0,0,0,3.33-.64s0,0,0,0Z"/><path id="Layer-14" data-name="Layer" class="cls-1" d="M96.37,13.2h0a2.15,2.15,0,0,1-1.13.3,1,1,0,0,1-.81-.32,1.19,1.19,0,0,1-.3-.87V8.84h2.22V6.12H94.13V3.39H90.47V6.12H89V8.86h1.51v3.51a3.87,3.87,0,0,0,1.09,3,4.5,4.5,0,0,0,3.15,1,6.27,6.27,0,0,0,1.41-.16l.23-.06V13.2Z"/></g><path id="Layer-15" data-name="Layer" class="cls-1" d="M7.49,6.08H22.27L28,.36H1.78V30.6l5.71-5.71Z"/><path id="Layer-16" data-name="Layer" class="cls-1" d="M30.34,28.92H15.57L9.86,34.64h26.2V8.44l-5.72,5.71Z"/><path id="Layer-17" data-name="Layer" class="cls-1" d="M30.34,28.92H15.57L9.86,34.64h26.2V8.44l-5.72,5.71Z"/><g id="Layer-18" data-name="Layer"><path id="Layer-19" data-name="Layer" class="cls-1" d="M32,.36l-15,15h0l-5.95,5.95h0L1.78,30.6v4h4l5.71-5.72h0L26.15,14.31h0L36.06,4.4v-4Z"/></g><path id="Layer-20" data-name="Layer" class="cls-1" d="M7.49,6.08H22.27L28,.36H1.78V30.6l5.71-5.71Z"/></g></g></svg>